<?xml version="1.0" encoding="UTF-8"?>
<svg width="1440" height="400" viewBox="0 0 1440 400" fill="none" xmlns="http://www.w3.org/2000/svg">
    <path d="M1440 0H0V400H1440V0Z" fill="url(#paint0_linear)"/>
    <g opacity="0.4">
        <path d="M-154 226L266.5 103.5L687 226L1107.5 103.5L1528 226" stroke="url(#paint1_linear)" stroke-width="2"/>
        <path d="M-154 262L266.5 139.5L687 262L1107.5 139.5L1528 262" stroke="url(#paint2_linear)" stroke-width="2"/>
        <path d="M-154 298L266.5 175.5L687 298L1107.5 175.5L1528 298" stroke="url(#paint3_linear)" stroke-width="2"/>
        <path d="M-154 334L266.5 211.5L687 334L1107.5 211.5L1528 334" stroke="url(#paint4_linear)" stroke-width="2"/>
        <path d="M-154 370L266.5 247.5L687 370L1107.5 247.5L1528 370" stroke="url(#paint5_linear)" stroke-width="2"/>
    </g>
    <defs>
        <linearGradient id="paint0_linear" x1="720" y1="0" x2="720" y2="400" gradientUnits="userSpaceOnUse">
            <stop stop-color="white" stop-opacity="0.1"/>
            <stop offset="1" stop-color="white" stop-opacity="0"/>
        </linearGradient>
        <linearGradient id="paint1_linear" x1="-154" y1="164.75" x2="1528" y2="164.75" gradientUnits="userSpaceOnUse">
            <stop stop-color="white" stop-opacity="0"/>
            <stop offset="0.5" stop-color="white" stop-opacity="0.5"/>
            <stop offset="1" stop-color="white" stop-opacity="0"/>
        </linearGradient>
        <linearGradient id="paint2_linear" x1="-154" y1="200.75" x2="1528" y2="200.75" gradientUnits="userSpaceOnUse">
            <stop stop-color="white" stop-opacity="0"/>
            <stop offset="0.5" stop-color="white" stop-opacity="0.5"/>
            <stop offset="1" stop-color="white" stop-opacity="0"/>
        </linearGradient>
        <linearGradient id="paint3_linear" x1="-154" y1="236.75" x2="1528" y2="236.75" gradientUnits="userSpaceOnUse">
            <stop stop-color="white" stop-opacity="0"/>
            <stop offset="0.5" stop-color="white" stop-opacity="0.5"/>
            <stop offset="1" stop-color="white" stop-opacity="0"/>
        </linearGradient>
        <linearGradient id="paint4_linear" x1="-154" y1="272.75" x2="1528" y2="272.75" gradientUnits="userSpaceOnUse">
            <stop stop-color="white" stop-opacity="0"/>
            <stop offset="0.5" stop-color="white" stop-opacity="0.5"/>
            <stop offset="1" stop-color="white" stop-opacity="0"/>
        </linearGradient>
        <linearGradient id="paint5_linear" x1="-154" y1="308.75" x2="1528" y2="308.75" gradientUnits="userSpaceOnUse">
            <stop stop-color="white" stop-opacity="0"/>
            <stop offset="0.5" stop-color="white" stop-opacity="0.5"/>
            <stop offset="1" stop-color="white" stop-opacity="0"/>
        </linearGradient>
    </defs>
</svg>
